<mxfile host="app.diagrams.net" agent="Mozilla/5.0 (Windows NT 10.0; Win64; x64; rv:132.0) Gecko/20100101 Firefox/132.0" version="24.8.4">
  <diagram name="Page-1" id="0JLXpal0O4lnVcGqFTkt">
    <mxGraphModel dx="1185" dy="632" grid="1" gridSize="10" guides="1" tooltips="1" connect="1" arrows="1" fold="1" page="1" pageScale="1" pageWidth="850" pageHeight="1100" math="0" shadow="0">
      <root>
        <mxCell id="0" />
        <mxCell id="1" parent="0" />
        <mxCell id="J19cRgD72Q7SGxjf4KrP-10" value="" style="edgeStyle=orthogonalEdgeStyle;rounded=0;orthogonalLoop=1;jettySize=auto;html=1;" edge="1" parent="1" source="J19cRgD72Q7SGxjf4KrP-1" target="J19cRgD72Q7SGxjf4KrP-9">
          <mxGeometry relative="1" as="geometry" />
        </mxCell>
        <mxCell id="J19cRgD72Q7SGxjf4KrP-1" value="&lt;div&gt;Import from turtle, Turtle, Screen&lt;/div&gt;&lt;div&gt;Import random&lt;br&gt;&lt;/div&gt;" style="rounded=1;whiteSpace=wrap;html=1;" vertex="1" parent="1">
          <mxGeometry x="365" y="40" width="120" height="60" as="geometry" />
        </mxCell>
        <mxCell id="J19cRgD72Q7SGxjf4KrP-14" value="" style="edgeStyle=orthogonalEdgeStyle;rounded=0;orthogonalLoop=1;jettySize=auto;html=1;" edge="1" parent="1" source="J19cRgD72Q7SGxjf4KrP-9" target="J19cRgD72Q7SGxjf4KrP-13">
          <mxGeometry relative="1" as="geometry" />
        </mxCell>
        <mxCell id="J19cRgD72Q7SGxjf4KrP-16" value="" style="edgeStyle=orthogonalEdgeStyle;rounded=0;orthogonalLoop=1;jettySize=auto;html=1;" edge="1" parent="1" source="J19cRgD72Q7SGxjf4KrP-9" target="J19cRgD72Q7SGxjf4KrP-15">
          <mxGeometry relative="1" as="geometry" />
        </mxCell>
        <mxCell id="J19cRgD72Q7SGxjf4KrP-9" value="Create turtle object" style="whiteSpace=wrap;html=1;rounded=1;" vertex="1" parent="1">
          <mxGeometry x="365" y="180" width="120" height="60" as="geometry" />
        </mxCell>
        <mxCell id="J19cRgD72Q7SGxjf4KrP-13" value="&lt;div&gt;Set turtle color mode to 255&lt;/div&gt;" style="shape=process;whiteSpace=wrap;html=1;backgroundOutline=1;rounded=1;" vertex="1" parent="1">
          <mxGeometry x="165" y="180" width="120" height="60" as="geometry" />
        </mxCell>
        <mxCell id="J19cRgD72Q7SGxjf4KrP-15" value="Name turtle" style="ellipse;whiteSpace=wrap;html=1;rounded=1;" vertex="1" parent="1">
          <mxGeometry x="585" y="170" width="80" height="80" as="geometry" />
        </mxCell>
      </root>
    </mxGraphModel>
  </diagram>
</mxfile>
